<?xml version="1.0" encoding="utf-8"?>
<!-- Generator: Adobe Illustrator 19.0.0, SVG Export Plug-In . SVG Version: 6.00 Build 0)  -->
<svg version="1.1" id="Layer_1" xmlns="http://www.w3.org/2000/svg" xmlns:xlink="http://www.w3.org/1999/xlink" x="0px" y="0px"
	 viewBox="0 0 1440 650" style="enable-background:new 0 0 1440 650;" xml:space="preserve">
<style type="text/css">
	.st0{fill:none;stroke:#FF6666;stroke-width:4;stroke-miterlimit:10;}
	.st1{fill:none;stroke:#333333;stroke-width:8;stroke-miterlimit:10;}
	.st2{fill:none;stroke:#333333;stroke-width:8;stroke-miterlimit:10;stroke-dasharray:12.034,12.034;}
	.st3{fill:#8800FF;}
</style>
<path id="XMLID_24_" class="st0" d="M48.6,220.4"/>
<path id="XMLID_23_" class="st0" d="M48.6,105.5"/>
<g id="XMLID_16_">
	<g id="XMLID_40_">
		<path id="XMLID_43_" class="st1" d="M80.6,157.2c0,0,2.1-0.2,6-0.6"/>
		<path id="XMLID_42_" class="st2" d="M98.5,155.6c74.5-5.3,343.8-14.6,100.7,157.2C-95.2,521,34.4,693.3,108.8,623.8
			s157-192.3,223.5-137.4s51.9,193.4,135.5,154.9c67.6-31.2-125.3-524.1,240.1-177.3c105.8,100.5,211.9-216.9-1.6-295.6
			s68.5-295.7,178.2-20.5s389.7,105,389.7,105s198.2-66.9,144.8,106.1"/>
		<path id="XMLID_41_" class="st1" d="M1417.2,364.6c-0.6,1.9-1.3,3.8-1.9,5.7"/>
	</g>
</g>
<circle id="XMLID_1_" class="st3" cx="155.3" cy="153.5" r="12.3"/>
<circle id="XMLID_2_" class="st3" cx="357.5" cy="513.1" r="12.3"/>
<circle id="XMLID_3_" class="st3" cx="235.2" cy="500.6" r="12.3"/>
<circle id="XMLID_4_" class="st3" cx="127.8" cy="606.7" r="12.3"/>
<circle id="XMLID_5_" class="st3" cx="19.1" cy="525.6" r="12.3"/>
<circle id="XMLID_6_" class="st3" cx="236.4" cy="284.6" r="12.3"/>
<circle id="XMLID_7_" class="st3" cx="765.9" cy="199.7" r="12.3"/>
<circle id="XMLID_8_" class="st3" cx="818.3" cy="272.1" r="12.3"/>
<circle id="XMLID_9_" class="st3" cx="830.8" cy="357" r="12.3"/>
<circle id="XMLID_15_" class="st3" cx="784.6" cy="468.1" r="12.3"/>
<circle id="XMLID_17_" class="st3" cx="685.9" cy="443.2" r="12.3"/>
<circle id="XMLID_18_" class="st3" cx="536.1" cy="342" r="12.3"/>
<circle id="XMLID_19_" class="st3" cx="476.2" cy="418.2" r="12.3"/>
<circle id="XMLID_20_" class="st3" cx="479.9" cy="508.1" r="12.3"/>
<circle id="XMLID_21_" class="st3" cx="482.4" cy="595.5" r="12.3"/>
<circle id="XMLID_22_" class="st3" cx="402.5" cy="619.2" r="12.3"/>
<circle id="XMLID_25_" class="st3" cx="969.4" cy="265.8" r="12.3"/>
<circle id="XMLID_26_" class="st3" cx="895.7" cy="175.9" r="12.3"/>
<circle id="XMLID_27_" class="st3" cx="838.3" cy="66" r="12.3"/>
<circle id="XMLID_28_" class="st3" cx="710.9" cy="12.4" r="12.3"/>
<circle id="XMLID_29_" class="st3" cx="631" cy="66" r="12.3"/>
<circle id="XMLID_30_" class="st3" cx="653.5" cy="141" r="12.3"/>
<circle id="XMLID_31_" class="st3" cx="1427.7" cy="297.1" r="12.3"/>
<circle id="XMLID_32_" class="st3" cx="1336.5" cy="240.9" r="12.3"/>
<circle id="XMLID_33_" class="st3" cx="1224.1" cy="275.8" r="12.3"/>
<circle id="XMLID_34_" class="st3" cx="1075.5" cy="304.5" r="12.3"/>
</svg>
